<?xml version="1.0" standalone="no"?>
<!DOCTYPE svg PUBLIC "-//W3C//DTD SVG 20010904//EN"
 "http://www.w3.org/TR/2001/REC-SVG-20010904/DTD/svg10.dtd">
<svg version="1.0" xmlns="http://www.w3.org/2000/svg"
 width="560.000000pt" height="560.000000pt" viewBox="0 0 560.000000 560.000000"
 preserveAspectRatio="xMidYMid meet">
<metadata>
Created by potrace 1.11, written by Peter Selinger 2001-2013
</metadata>
<g transform="translate(0.000000,560.000000) scale(0.100000,-0.100000)"
fill="#000000" stroke="none">
<path d="M2619 5595 c-2 -2 -40 -6 -84 -9 -44 -4 -91 -8 -105 -11 -14 -2 -68
-11 -120 -20 -554 -94 -1097 -379 -1500 -788 -126 -127 -350 -405 -350 -434 0
-6 -4 -13 -9 -15 -16 -6 -147 -243 -205 -372 -114 -253 -197 -557 -229 -841
-13 -112 -15 -510 -3 -590 3 -16 7 -55 11 -85 3 -30 17 -109 30 -175 115 -583
412 -1111 852 -1515 102 -94 125 -113 223 -186 273 -203 599 -362 925 -452 97
-26 137 -36 245 -57 14 -3 48 -8 75 -11 28 -4 52 -8 55 -10 4 -1 49 -6 100
-11 171 -14 529 -8 640 12 14 2 68 11 120 20 707 118 1368 538 1796 1140 246
345 408 745 479 1176 23 142 30 236 30 434 0 241 -13 383 -51 555 -9 41 -20
95 -25 119 -5 25 -13 59 -19 75 -5 17 -21 69 -36 116 -14 47 -32 99 -39 115
-71 172 -96 227 -151 332 -425 814 -1240 1369 -2171 1478 -56 7 -479 16 -484
10z"/>
</g>
</svg>
