<?xml version="1.0" encoding="UTF-8"?>
<svg width="84px" height="65px" viewBox="0 0 84 65" version="1.1" xmlns="http://www.w3.org/2000/svg" xmlns:xlink="http://www.w3.org/1999/xlink">
    <!-- Generator: Sketch 42 (36781) - http://www.bohemiancoding.com/sketch -->
    <title>noun_551745_cc</title>
    <desc>Created with Sketch.</desc>
    <defs></defs>
    <g id="Design" stroke="none" stroke-width="1" fill="none" fill-rule="evenodd">
        <g id="Desktop-HD" transform="translate(-1036.000000, -1136.000000)" fill-rule="nonzero" fill="#1A1A1A">
            <g id="noun_551745_cc" transform="translate(1036.000000, 1136.000000)">
                <g id="Group">
                    <g>
                        <path d="M76.44,0.185714286 L7.56,0.185714286 C3.36,0.185714286 0,3.52857143 0,7.70714286 L0,57.2 C0,61.3785714 3.36,64.7214286 7.56,64.7214286 L76.44,64.7214286 C80.64,64.7214286 84,61.3785714 84,57.2 L84,7.70714286 C84,3.62142857 80.64,0.185714286 76.44,0.185714286 Z M80.4533333,57.2928571 C80.4533333,59.5214286 78.68,61.2857143 76.44,61.2857143 L7.56,61.2857143 C5.32,61.2857143 3.54666667,59.5214286 3.54666667,57.2928571 L3.54666667,17.4571429 L80.4533333,17.4571429 L80.4533333,57.2928571 Z M80.4533333,13.9285714 L3.54666667,13.9285714 L3.54666667,7.70714286 C3.54666667,5.47857143 5.32,3.71428571 7.56,3.71428571 L76.44,3.71428571 C78.68,3.71428571 80.4533333,5.47857143 80.4533333,7.70714286 L80.4533333,13.9285714 Z" id="Shape"></path>
                        <path d="M42,11.2357143 L74.0133333,11.2357143 C74.3866667,11.2357143 74.6666667,10.9571429 74.6666667,10.5857143 L74.6666667,8.35714286 C74.6666667,7.98571429 74.3866667,7.70714286 74.0133333,7.70714286 L42,7.70714286 C41.6266667,7.70714286 41.3466667,7.98571429 41.3466667,8.35714286 L41.3466667,10.5857143 C41.3466667,10.9571429 41.6266667,11.2357143 42,11.2357143 Z" id="Shape"></path>
                        <ellipse id="Oval" cx="9.52" cy="9.47142857" rx="1.77333333" ry="1.76428571"></ellipse>
                        <ellipse id="Oval" cx="15.3066667" cy="9.47142857" rx="1.77333333" ry="1.76428571"></ellipse>
                        <ellipse id="Oval" cx="21.56" cy="9.47142857" rx="1.77333333" ry="1.76428571"></ellipse>
                        <path d="M30.6133333,46.15 L23.3333333,38.9071429 L29.8666667,32.4071429 C30.52,31.7571429 30.52,30.6428571 29.8666667,29.9 L29.8666667,29.9 C29.2133333,29.25 28.0933333,29.25 27.3466667,29.9 L19.7866667,37.5142857 C18.9466667,38.35 18.9466667,39.5571429 19.7866667,40.3928571 L28.0933333,48.6571429 C28.7466667,49.3071429 29.8666667,49.3071429 30.6133333,48.6571429 L30.6133333,48.6571429 C31.36,47.9142857 31.36,46.8 30.6133333,46.15 Z" id="Shape"></path>
                        <path d="M55.44,48.6571429 L63.7466667,40.3928571 C64.5866667,39.5571429 64.5866667,38.35 63.7466667,37.5142857 L56.0933333,29.9 C55.44,29.25 54.32,29.25 53.5733333,29.9 L53.5733333,29.9 C52.92,30.55 52.92,31.6642857 53.5733333,32.4071429 L60.1066667,38.9071429 L52.8266667,46.15 C52.1733333,46.8 52.1733333,47.9142857 52.8266667,48.6571429 L52.8266667,48.6571429 C53.5733333,49.3071429 54.6933333,49.3071429 55.44,48.6571429 Z" id="Shape"></path>
                        <path d="M48.8133333,28.5071429 L48.8133333,28.5071429 C47.9733333,28.0428571 46.8533333,28.2285714 46.3866667,29.0642857 L35,47.6357143 C34.5333333,48.4714286 34.72,49.5857143 35.56,50.05 L35.56,50.05 C36.4,50.5142857 37.52,50.3285714 37.9866667,49.4928571 L49.28,31.0142857 C49.9333333,30.0857143 49.6533333,28.9714286 48.8133333,28.5071429 Z" id="Shape"></path>
                    </g>
                </g>
            </g>
        </g>
    </g>
</svg>