<?xml version="1.0" encoding="UTF-8"?>
<svg width="16px" height="17px" viewBox="0 0 16 17" version="1.1" xmlns="http://www.w3.org/2000/svg" xmlns:xlink="http://www.w3.org/1999/xlink">
    <!-- Generator: Sketch 42 (36781) - http://www.bohemiancoding.com/sketch -->
    <title>ion-social-github - Ionicons</title>
    <desc>Created with Sketch.</desc>
    <defs></defs>
    <g id="Design" stroke="none" stroke-width="1" fill="none" fill-rule="evenodd" opacity="0.400000006">
        <g id="Desktop-HD" transform="translate(-237.000000, -4072.000000)" fill="#FFFFFF">
            <g id="Group-6" transform="translate(227.000000, 4062.000000)">
                <path d="M17.875,10.375 C20.0546984,10.375 21.9121017,11.1660077 23.4472656,12.7480469 C24.9824296,14.330086 25.75,16.2343639 25.75,18.4609375 C25.75,20.2187588 25.2460988,21.8007742 24.2382812,23.2070312 C23.2304637,24.6132883 21.9414141,25.5859348 20.3710938,26.125 L20.2304688,26.125 C19.9492173,26.125 19.8085938,25.9843764 19.8085938,25.703125 C19.8085938,25.6796874 19.8144531,25.4160181 19.8261719,24.9121094 C19.8378907,24.4082006 19.84375,23.9453146 19.84375,23.5234375 C19.84375,22.8437466 19.6562519,22.3398454 19.28125,22.0117188 C20.3593804,21.871093 21.2324185,21.5253934 21.9003906,20.9746094 C22.5683627,20.4238254 22.9023438,19.4453195 22.9023438,18.0390625 C22.9023438,17.1953083 22.6328152,16.468753 22.09375,15.859375 C22.3281262,15.1796841 22.3046889,14.4648475 22.0234375,13.7148438 L21.8476562,13.7148438 C21.3085911,13.7148438 20.640629,13.9960909 19.84375,14.5585938 C19.1640591,14.3710928 18.5078157,14.2773438 17.875,14.2773438 C17.2421843,14.2773438 16.5859409,14.3710928 15.90625,14.5585938 C15.109371,13.9960909 14.4414089,13.7148438 13.9023438,13.7148438 L13.7265625,13.7148438 C13.4453111,14.4648475 13.4218738,15.1796841 13.65625,15.859375 C13.1171848,16.468753 12.8476562,17.1953083 12.8476562,18.0390625 C12.8476562,19.4453195 13.175778,20.4238254 13.8320312,20.9746094 C14.4882845,21.5253934 15.3554634,21.871093 16.4335938,22.0117188 C16.17578,22.2695325 16.0117191,22.6328102 15.9414062,23.1015625 C15.6601548,23.2421882 15.3554704,23.3125 15.0273438,23.3125 C14.4414033,23.3125 13.9843766,23.0195342 13.65625,22.4335938 C13.351561,21.9179662 12.9414088,21.636719 12.4257812,21.5898438 C11.9335913,21.5898438 11.9218727,21.7539046 12.390625,22.0820312 C12.7421893,22.2695322 13.0351551,22.6679657 13.2695312,23.2773438 C13.2929689,23.3710942 13.3398434,23.4824212 13.4101562,23.6113281 C13.4804691,23.740235 13.6738265,23.9101552 13.9902344,24.1210938 C14.3066422,24.3320323 14.6874978,24.4375 15.1328125,24.4375 C15.4609391,24.4375 15.7187491,24.4140627 15.90625,24.3671875 L15.90625,25.7382812 C15.90625,25.996095 15.777345,26.125 15.5195312,26.125 L15.3789062,26.125 C13.7851483,25.5859348 12.4902394,24.6191476 11.4941406,23.2246094 C10.4980419,21.8300712 10,20.2421964 10,18.4609375 C10,16.2343639 10.7675704,14.330086 12.3027344,12.7480469 C13.8378983,11.1660077 15.6953016,10.375 17.875,10.375 Z" id="ion-social-github---Ionicons"></path>
            </g>
        </g>
    </g>
</svg>