<?xml version="1.0" encoding="UTF-8"?>
<svg width="101px" height="12px" viewBox="0 0 101 12" version="1.1" xmlns="http://www.w3.org/2000/svg" xmlns:xlink="http://www.w3.org/1999/xlink">
    <!-- Generator: Sketch 42 (36781) - http://www.bohemiancoding.com/sketch -->
    <title>Group 7</title>
    <desc>Created with Sketch.</desc>
    <defs></defs>
    <g id="Design" stroke="none" stroke-width="1" fill="none" fill-rule="evenodd">
        <g id="Desktop-HD" transform="translate(-43.000000, -43.000000)" fill="#FFFFFF">
            <g id="Group-7" transform="translate(43.000000, 43.000000)">
                <path d="M2.96,11.192 C1.75466064,11.192 0.80000352,10.8453368 0.096,10.152 L1.088,8.408 C1.621336,8.92000256 2.18666368,9.176 2.784,9.176 C3.28533584,9.176 3.68799848,9.02133488 3.992,8.712 C4.29600152,8.40266512 4.448,7.98666928 4.448,7.464 L4.448,0.328 L6.72,0.328 L6.72,7.496 C6.72,8.71200608 6.37867008,9.63199688 5.696,10.256 C5.01332992,10.8800031 4.10133904,11.192 2.96,11.192 Z M18.784,11 L16.192,11 L15.536,9.192 L10.96,9.192 L10.288,11 L7.696,11 L11.824,0.328 L14.672,0.328 L18.784,11 Z M14.912,7.192 L13.248,2.6 L11.584,7.192 L14.912,7.192 Z M23.984,11 L19.776,11 L19.776,0.328 L23.984,0.328 C25.658675,0.328 27.0213281,0.81866176 28.072,1.8 C29.1226719,2.78133824 29.648,4.071992 29.648,5.672 C29.648,7.272008 29.1253386,8.55999512 28.08,9.536 C27.0346614,10.5120049 25.6693418,11 23.984,11 Z M23.984,9 C25.0080051,9 25.8213303,8.6800032 26.424,8.04 C27.0266697,7.3999968 27.328,6.61067136 27.328,5.672 C27.328,4.69066176 27.0346696,3.88800312 26.448,3.264 C25.8613304,2.63999688 25.0400053,2.328 23.984,2.328 L22.048,2.328 L22.048,9 L23.984,9 Z" id="JAD"></path>
                <path d="M32.96,11.192 C31.8079942,11.192 30.8960034,10.754671 30.224,9.88 L30.784,9.192 C31.3813363,9.97067056 32.0906626,10.36 32.912,10.36 C33.6266702,10.36 34.1973312,10.1333356 34.624,9.68 C35.0506688,9.2266644 35.264,8.63733696 35.264,7.912 L35.264,0.328 L36.192,0.328 L36.192,7.912 C36.192,8.978672 35.888003,9.7919972 35.28,10.352 C34.671997,10.9120028 33.8986714,11.192 32.96,11.192 Z M43.632,11.192 C42.0853256,11.192 40.8346714,10.6693386 39.88,9.624 C38.9253286,8.57866144 38.448,7.26134128 38.448,5.672 C38.448,4.08265872 38.9253286,2.76533856 39.88,1.72 C40.8346714,0.67466144 42.0853256,0.152 43.632,0.152 C45.1680077,0.152 46.4159952,0.67466144 47.376,1.72 C48.3360048,2.76533856 48.816,4.08265872 48.816,5.672 C48.816,7.26134128 48.3360048,8.57866144 47.376,9.624 C46.4159952,10.6693386 45.1680077,11.192 43.632,11.192 Z M43.632,10.36 C44.890673,10.36 45.9093294,9.9200044 46.688,9.04 C47.4666706,8.1599956 47.856,7.03734016 47.856,5.672 C47.856,4.29599312 47.4693372,3.17067104 46.696,2.296 C45.9226628,1.42132896 44.9013397,0.984 43.632,0.984 C42.3519936,0.984 41.3280038,1.42132896 40.56,2.296 C39.7919962,3.17067104 39.408,4.29599312 39.408,5.672 C39.408,7.03734016 39.7919962,8.1599956 40.56,9.04 C41.3280038,9.9200044 42.3519936,10.36 43.632,10.36 Z M55.232,11.192 C53.8879933,11.192 52.8586702,10.8106705 52.144,10.048 C51.4293298,9.28532952 51.072,8.23734 51.072,6.904 L51.072,0.328 L52,0.328 L52,6.888 C52,7.97600544 52.2799972,8.8266636 52.84,9.44 C53.4000028,10.0533364 54.1973282,10.36 55.232,10.36 C56.2773386,10.36 57.0773306,10.056003 57.632,9.448 C58.1866694,8.83999696 58.464,7.98667216 58.464,6.888 L58.464,0.328 L59.392,0.328 L59.392,6.904 C59.392,8.24800672 59.0373369,9.29866288 58.328,10.056 C57.6186631,10.8133371 56.5866734,11.192 55.232,11.192 Z M66.528,11 L62.048,11 L62.048,0.328 L66.432,0.328 C67.3280045,0.328 68.042664,0.57333088 68.576,1.064 C69.109336,1.55466912 69.376,2.21599584 69.376,3.048 C69.376,3.6880032 69.1920018,4.22933112 68.824,4.672 C68.4559982,5.11466888 68.0160026,5.3893328 67.504,5.496 C68.0693362,5.58133376 68.5573313,5.88266408 68.968,6.4 C69.3786687,6.91733592 69.584,7.49066352 69.584,8.12 C69.584,9.00533776 69.3120027,9.70666408 68.768,10.224 C68.2239973,10.7413359 67.4773381,11 66.528,11 Z M66.32,5.112 C66.9813366,5.112 67.4959982,4.92800184 67.864,4.56 C68.2320018,4.19199816 68.416,3.72000288 68.416,3.144 C68.416,2.57866384 68.2320018,2.10666856 67.864,1.728 C67.4959982,1.34933144 66.9813366,1.16 66.32,1.16 L62.96,1.16 L62.96,5.112 L66.32,5.112 Z M66.384,10.168 C67.0880035,10.168 67.6373314,9.97866856 68.032,9.6 C68.4266686,9.22133144 68.624,8.70666992 68.624,8.056 C68.624,7.4693304 68.4266686,6.97066872 68.032,6.56 C67.6373314,6.14933128 67.0880035,5.944 66.384,5.944 L62.96,5.944 L62.96,10.168 L66.384,10.168 Z M79.232,11 L78.128,11 L75.136,6.584 L72.784,6.584 L72.784,11 L71.872,11 L71.872,0.328 L75.856,0.328 C76.7946714,0.328 77.5706636,0.61066384 78.184,1.176 C78.7973364,1.74133616 79.104,2.49866192 79.104,3.448 C79.104,4.37600464 78.8186695,5.11199728 78.248,5.656 C77.6773305,6.20000272 76.9760042,6.48799984 76.144,6.52 L79.232,11 Z M75.776,5.752 C76.4800035,5.752 77.0506645,5.53600216 77.488,5.104 C77.9253355,4.67199784 78.144,4.12000336 78.144,3.448 C78.144,2.77599664 77.9253355,2.2266688 77.488,1.8 C77.0506645,1.3733312 76.4800035,1.16 75.776,1.16 L72.784,1.16 L72.784,5.752 L75.776,5.752 Z M90.16,11 L89.104,11 L88.048,8.376 L82.4,8.376 L81.344,11 L80.288,11 L84.656,0.328 L85.792,0.328 L90.16,11 Z M87.744,7.544 L85.216,1.304 L82.704,7.544 L87.744,7.544 Z M100.256,11 L99.36,11 L92.64,1.832 L92.64,11 L91.728,11 L91.728,0.328 L92.656,0.328 L99.344,9.368 L99.344,0.328 L100.256,0.328 L100.256,11 Z" id="JOUBRAN"></path>
            </g>
        </g>
    </g>
</svg>