<?xml version="1.0" encoding="UTF-8"?>
<svg width="21px" height="18px" viewBox="0 0 21 18" version="1.1" xmlns="http://www.w3.org/2000/svg" xmlns:xlink="http://www.w3.org/1999/xlink">
    <!-- Generator: Sketch 44.1 (41455) - http://www.bohemiancoding.com/sketch -->
    <title></title>
    <desc>Created with Sketch.</desc>
    <defs></defs>
    <g id="Design" stroke="none" stroke-width="1" fill="none" fill-rule="evenodd" opacity="0.400000006">
        <g id="Desktop-HD" transform="translate(-414.000000, -4068.000000)" fill="#FFFFFF">
            <path d="M432.984375,4068.75 C433.515628,4068.75 433.984373,4068.95312 434.390625,4069.35938 C434.796877,4069.76563 435,4070.23437 435,4070.76562 L435,4083.23438 C435,4083.76563 434.796877,4084.23437 434.390625,4084.64062 C433.984373,4085.04688 433.515628,4085.25 432.984375,4085.25 L416.015625,4085.25 C415.484372,4085.25 415.015627,4085.04688 414.609375,4084.64062 C414.203123,4084.23437 414,4083.76563 414,4083.23438 L414,4070.76562 C414,4070.23437 414.203123,4069.76563 414.609375,4069.35938 C415.015627,4068.95312 415.484372,4068.75 416.015625,4068.75 L432.984375,4068.75 Z M432.75,4073.01562 L432.75,4071 L424.5,4076.48438 L416.25,4071 L416.25,4073.01562 L424.5,4078.5 L432.75,4073.01562 Z" id=""></path>
        </g>
    </g>
</svg>