<?xml version="1.0" encoding="UTF-8"?>
<svg width="24px" height="21px" viewBox="0 0 24 21" version="1.1" xmlns="http://www.w3.org/2000/svg" xmlns:xlink="http://www.w3.org/1999/xlink">
    <!-- Generator: Sketch 44.1 (41455) - http://www.bohemiancoding.com/sketch -->
    <title></title>
    <desc>Created with Sketch.</desc>
    <defs></defs>
    <g id="Design" stroke="none" stroke-width="1" fill="none" fill-rule="evenodd" opacity="0.400000006">
        <g id="Desktop-HD" transform="translate(-369.000000, -4067.000000)" fill="#FFFFFF">
            <path d="M376.995545,4071.06695 C376.995545,4071.05355 376.968759,4071.01337 376.955367,4070.99998 L370.111608,4067.57141 C369.924108,4067.47766 369.736608,4067.37051 369.522322,4067.37051 C369.160714,4067.37051 369,4067.67855 369,4068.01337 L369,4083.28125 C369,4083.68303 369.294643,4084.16518 369.669644,4084.35268 L375.89733,4087.47322 C376.031258,4087.54018 376.17858,4087.58036 376.339294,4087.58036 C376.794652,4087.58036 376.995545,4087.19197 376.995545,4086.77679 L376.995545,4071.06695 Z M377.852689,4072.41963 L385.004483,4084.01785 L377.852689,4080.45535 L377.852689,4072.41963 Z M393.000029,4072.6607 L393.000029,4086.77679 C393.000029,4087.21875 392.745564,4087.52679 392.303599,4087.52679 C392.07592,4087.52679 391.861634,4087.45982 391.674134,4087.35268 L385.767877,4084.40625 L393.000029,4072.6607 Z M392.95985,4071.05355 C392.95985,4071.10713 386.035735,4082.34375 385.50002,4083.20089 L380.276799,4074.70981 L384.61609,4067.65176 C384.763412,4067.41069 385.031269,4067.27676 385.312519,4067.27676 C385.433055,4067.27676 385.553591,4067.30355 385.660734,4067.35712 L392.906278,4070.9732 C392.933064,4070.98659 392.95985,4071.01337 392.95985,4071.05355 Z" id=""></path>
        </g>
    </g>
</svg>