<svg width="34" height="30" xmlns="http://www.w3.org/2000/svg" xmlns:xlink="http://www.w3.org/1999/xlink"><desc>Created using Figma</desc><use xlink:href="#a" transform="translate(12.66 15.503)" fill="#EFC75E"/><use xlink:href="#b" transform="translate(14.95 15.503)" fill="#E8B121"/><use xlink:href="#c" transform="translate(0 4.887)" fill="#EFC75E"/><use xlink:href="#d" transform="translate(3.14 14.752)" fill="#5B717C"/><use xlink:href="#e" transform="translate(10.76 7.94)" fill="#F26C4F"/><use xlink:href="#f" transform="translate(14.95)" fill="#F4F0D3"/><use xlink:href="#g" transform="translate(24 5.952)" fill="#547485"/><use xlink:href="#h" transform="translate(23.71 5.668)" fill="#324D5B"/><use xlink:href="#i" transform="translate(14.95 9.745)" fill="#DAD3AF"/><use xlink:href="#j" transform="translate(16.37 10.972)" fill="#F26C4F"/><defs><path id="a" d="M 5.33785 0.755338C 6.34984 1.76172 6.34984 3.39428 5.33785 4.40066C 4.32585 5.40778 1.37678 6.71003 0.364857 5.70291C -0.64714 4.6958 0.661632 1.76172 1.67363 0.755338C 2.68563 -0.251779 4.32592 -0.251779 5.33785 0.755338Z"/><path id="b" d="M 0.00453896 0.297689L 3.17944e-07 0.384738C 3.17944e-07 2.26507 1.53552 3.78983 3.42914 3.78983L 3.50266 3.78606C 4.02276 2.81183 3.8711 1.57541 3.04581 0.754805C 2.22209 -0.0643227 0.983048 -0.216843 0.00453896 0.297689Z"/><path id="c" d="M 3.42913 0C 3.20053 2.04231 2.05748 3.17771 0 3.40509C 2.05748 3.63209 3.20053 4.76749 3.42913 6.81018C 3.65774 4.76749 4.80116 3.63209 6.85864 3.40509C 4.80116 3.17771 3.65774 2.04231 3.42913 0ZM 23.6583 19.8157C 23.4803 21.404 22.5918 22.2871 20.9912 22.4641C 22.5918 22.6404 23.4803 23.5235 23.6583 25.1125C 23.8362 23.5235 24.7255 22.6404 26.3261 22.4641C 24.7255 22.2871 23.8362 21.404 23.6583 19.8157Z"/><path id="d" d="M 28.1951 0.757056C 28.0686 1.89172 27.4331 2.52278 26.29 2.64914C 27.4331 2.77476 28.0686 3.40583 28.1951 4.54049C 28.3224 3.40583 28.9571 2.77476 30.1002 2.64914C 28.9571 2.52278 28.3224 1.89172 28.1951 0.757056ZM 1.52406 2.70612e-07C 1.42233 0.907654 0.914436 1.41273 2.27103e-07 1.51337C 0.914436 1.61439 1.42233 2.11909 1.52406 3.02675C 1.62579 2.11946 2.13368 1.61476 3.04812 1.51337C 2.13406 1.41273 1.62579 0.907654 1.52406 2.70612e-07ZM 12.1925 10.5936C 12.0656 11.7286 11.4304 12.3597 10.2874 12.4857C 11.4304 12.6117 12.0656 13.2428 12.1925 14.3774C 12.3194 13.2428 12.9545 12.6117 14.0976 12.4857C 12.9545 12.3597 12.3197 11.7286 12.1925 10.5936Z"/><path id="e" d="M 12.557 2.668C 15.6596 5.74921 16.2807 10.1278 13.3323 13.0558L 11.9401 14.4387C 8.99182 17.3659 11.0337 10.3431 7.93071 7.26192C 4.82812 4.18071 -2.2447 6.20824 0.704001 3.28059L 2.09664 1.89772C 5.04489 -1.02957 9.45358 -0.412837 12.557 2.668Z"/><path id="f" d="M 18.664 0.387926C 19.607 1.32433 19.1924 7.26129 13.3953 13.0182C 9.61985 16.7668 7.23509 18.0781 7.23509 18.0781C 4.71012 19.7618 3.48894 18.612 1.90014 17.0343C 0.299874 15.4449 -0.870632 14.2425 0.848921 11.7367C 0.848921 11.7367 2.18746 9.35126 5.945 5.62007C 11.7371 -0.132297 17.7172 -0.551873 18.664 0.387926Z"/><path id="g" d="M 1.99941 3.9726C 1.46524 3.9726 0.962631 3.76599 0.584667 3.39068C -0.195297 2.61618 -0.194479 1.35598 0.584667 0.581481C 0.962631 0.206537 1.46517 1.80408e-08 1.99941 1.80408e-08C 2.53365 1.80408e-08 3.03619 0.206611 3.41415 0.581481C 3.79211 0.956795 3.99974 1.45581 3.99974 1.9863C 3.99974 2.51672 3.79211 3.01581 3.41415 3.39068C 3.03619 3.76562 2.53365 3.9726 1.99941 3.9726Z"/><path id="h" d="M 2.28607 0.567515C 2.74366 0.567515 3.17461 0.744568 3.49847 1.06579C 3.82308 1.38775 4.00064 1.81494 4.00064 2.27006C 4.00064 2.72481 3.82271 3.15237 3.49847 3.47396C 3.17461 3.79555 2.74403 3.9726 2.28607 3.9726C 1.82774 3.9726 1.39753 3.79555 1.07367 3.47396C 0.405406 2.81038 0.405406 1.72981 1.07367 1.06579C 1.39716 0.744568 1.82736 0.567515 2.28607 0.567515ZM 2.28607 -2.75122e-07C 1.70123 -2.75122e-07 1.11557 0.221316 0.669809 0.664761C -0.223269 1.55158 -0.223269 2.98891 0.669809 3.87536C 1.11557 4.31843 1.70123 4.54012 2.28607 4.54012C 2.87091 4.54012 3.45576 4.31843 3.90233 3.87536C 4.79541 2.98891 4.79541 1.55158 3.90233 0.664761C 3.45583 0.221685 2.87099 -2.75122e-07 2.28607 -2.75122e-07Z"/><path id="i" d="M 8.39875 7.56347C 5.73923 9.33717 4.45256 8.12603 2.77952 6.46398C 1.09353 4.79018 -0.139783 3.52347 1.67153 0.883417C 1.67153 0.883417 1.84909 0.568993 2.24417 2.34531e-07C 1.25695 1.26782 0.848921 1.99162 0.848921 1.99162C -0.870632 4.49778 0.299872 5.70012 1.90013 7.28917C 3.48894 8.86683 4.71012 10.0166 7.23509 8.33301C 7.23509 8.33301 7.67474 8.09012 8.47108 7.52105L 8.39875 7.56347Z"/><path id="j" d="M 6.73508 0.116855C 7.19036 0.568576 6.32586 2.15991 4.12587 4.3441C 1.92626 6.52829 0.598806 7.11436 0.143151 6.66256C -0.31176 6.21084 0.278441 4.89189 2.47798 2.70777C 4.67753 0.523648 6.28047 -0.335236 6.73508 0.116855Z"/></defs></svg>