<?xml version="1.0" encoding="UTF-8"?>
<svg width="62px" height="83px" viewBox="0 0 62 83" version="1.1" xmlns="http://www.w3.org/2000/svg" xmlns:xlink="http://www.w3.org/1999/xlink">
    <!-- Generator: Sketch 42 (36781) - http://www.bohemiancoding.com/sketch -->
    <title>noun_782408_cc</title>
    <desc>Created with Sketch.</desc>
    <defs></defs>
    <g id="Design" stroke="none" stroke-width="1" fill="none" fill-rule="evenodd">
        <g id="Desktop-HD" transform="translate(-329.000000, -1129.000000)" fill-rule="nonzero" fill="#1A1A1A">
            <g id="noun_782408_cc" transform="translate(329.000000, 1129.000000)">
                <g id="Group">
                    <g id="Shape">
                        <path d="M31,0.330330879 C25.98606,0.330330879 21.8823529,4.43551088 21.8823529,9.45121 C21.8823529,14.4669091 25.98606,18.5720891 31,18.5720891 C36.0139491,18.5720891 40.1176471,14.4669091 40.1176471,9.45121 C40.1176471,4.43551088 36.0139491,0.330330879 31,0.330330879 Z M31,3.97868253 C34.0429144,3.97868253 36.4705882,6.40724429 36.4705882,9.45121 C36.4705882,12.4951757 34.0429144,14.9237375 31,14.9237375 C27.9570947,14.9237375 25.5294118,12.4951757 25.5294118,9.45121 C25.5294118,6.40724429 27.9570947,3.97868253 31,3.97868253 Z M14.5882353,14.9237375 C13.0775779,14.9237375 11.8529412,16.1488084 11.8529412,17.6600012 L6.23988971,21.6503858 C5.75919285,21.9911273 5.47265255,22.5431783 5.47058824,23.1325287 L5.47058824,40.4622264 L1.82352941,40.4622264 C0.835495588,40.4868527 0.0224111765,41.464611 0,42.2864022 L0,55.055633 C9.11764706e-05,56.0107714 0.868756765,56.8797176 1.82352941,56.8798088 L9.11764706,56.8798088 L9.11764706,80.5940945 C9.1177475,81.6015174 9.93411059,82.4181699 10.9411765,82.4182703 L51.0588235,82.4182703 C52.0658894,82.4181699 52.8822525,81.6015174 52.8823529,80.5940945 L52.8823529,56.8798088 L60.1764706,56.8798088 C61.1312432,56.8797176 61.9999088,56.0107714 62,55.055633 L62,42.2864022 C61.9999088,41.3312637 61.1312432,40.4623176 60.1764706,40.4622264 L47.4117647,40.4622264 L47.4117647,32.2534352 C47.4117647,29.1092857 45.2098438,26.5216011 42.2261029,24.8427209 C39.2423621,23.1637495 35.3161938,22.2204408 31,22.2204408 C26.6838062,22.2204408 22.7576379,23.1637495 19.7738971,24.8427209 C16.7901562,26.5216011 14.5882353,29.1092857 14.5882353,32.2534352 L14.5882353,40.4622264 L9.11764706,40.4622264 L9.11764706,24.0731011 L14.3033088,20.3677622 C14.3999012,20.3780688 14.4889076,20.3962193 14.5882353,20.3962193 C16.0988926,20.3962193 17.3235294,19.1711485 17.3235294,17.6599556 C17.3235294,16.1487627 16.0988926,14.9236919 14.5882353,14.9236919 L14.5882353,14.9237375 Z M31,25.8688198 C34.7656885,25.8688198 38.14116,26.7464308 40.4310662,28.0350286 C42.7209724,29.3235352 43.7647059,30.8498231 43.7647059,32.2534352 L43.7647059,40.4622264 L18.2352941,40.4622264 L18.2352941,32.2534352 C18.2352941,30.8498231 19.2790276,29.3235352 21.5689338,28.0350286 C23.85884,26.7464308 27.2343115,25.8688198 31,25.8688198 Z M3.64705882,44.110578 L58.3529412,44.110578 L58.3529412,53.2314571 L3.64705882,53.2314571 L3.64705882,44.110578 Z M12.7647059,56.8798088 L49.2352941,56.8798088 L49.2352941,78.7699187 L12.7647059,78.7699187 L12.7647059,56.8798088 Z"></path>
                    </g>
                </g>
            </g>
        </g>
    </g>
</svg>