<?xml version="1.0" encoding="UTF-8"?>
<svg width="378px" height="26px" viewBox="0 0 378 26" version="1.1" xmlns="http://www.w3.org/2000/svg" xmlns:xlink="http://www.w3.org/1999/xlink">
    <!-- Generator: Sketch 44.1 (41455) - http://www.bohemiancoding.com/sketch -->
    <title>I travel the world t</title>
    <desc>Created with Sketch.</desc>
    <defs></defs>
    <g id="Design" stroke="none" stroke-width="1" fill="none" fill-rule="evenodd" opacity="0.598109149">
        <g id="Desktop-HD" transform="translate(-531.000000, -488.000000)" fill="#FFFFFF">
            <path d="M538.484,508 L531.828,508 L531.958,507.246 C532.72067,506.933998 533.465996,506.726001 534.194,506.622 L537.444,491.204 C537.097332,491.134666 536.768002,491.043667 536.456,490.931 C536.143998,490.818333 535.823335,490.692667 535.494,490.554 L535.676,489.8 L542.332,489.8 L542.176,490.554 C541.829332,490.692667 541.456669,490.818333 541.058,490.931 C540.659331,491.043667 540.286668,491.134666 539.94,491.204 L536.69,506.622 C537.036668,506.691334 537.378998,506.777999 537.717,506.882 C538.055002,506.986001 538.353999,507.107333 538.614,507.246 L538.484,508 Z M548.494,495.624 C548.840668,495.433332 549.208998,495.260001 549.599,495.104 C549.989002,494.947999 550.374665,494.826667 550.756,494.74 L551.172,492.764 C551.414668,492.573332 551.696332,492.404334 552.017,492.257 C552.337668,492.109666 552.671332,491.966667 553.018,491.828 L553.564,492.14 L552.94,495 L556.164,495 C556.198667,495.208001 556.198667,495.424666 556.164,495.65 C556.129333,495.875334 556.042667,496.091999 555.904,496.3 L552.68,496.3 L551.042,503.84 C550.972666,504.169335 550.920667,504.459665 550.886,504.711 C550.851333,504.962335 550.834,505.191999 550.834,505.4 C550.834,505.850669 550.963999,506.179999 551.224,506.388 C551.484001,506.596001 551.769998,506.7 552.082,506.7 C552.515335,506.7 552.978998,506.617667 553.473,506.453 C553.967002,506.288333 554.421998,506.102001 554.838,505.894 L555.124,506.362 C554.967999,506.587334 554.734002,506.812666 554.422,507.038 C554.109998,507.263334 553.759002,507.471332 553.369,507.662 C552.978998,507.852668 552.571669,508.008666 552.147,508.13 C551.722331,508.251334 551.319335,508.312 550.938,508.312 C550.17533,508.312 549.577336,508.138668 549.144,507.792 C548.710665,507.445332 548.494,506.908004 548.494,506.18 C548.494,505.937332 548.515666,505.668668 548.559,505.374 C548.602334,505.079332 548.658666,504.776002 548.728,504.464 L550.444,496.3 L548.468,496.3 L548.494,495.624 Z M563.782,496.586 C563.331331,496.759334 562.824336,497.196996 562.261,497.899 C561.697664,498.601004 561.199335,499.549994 560.766,500.746 L559.206,508 L556.97,508 L559.388,496.508 L557.802,496.274 L557.802,495.624 C558.391336,495.346665 559.006663,495.134334 559.648,494.987 C560.289337,494.839666 560.869997,494.74 561.39,494.688 L561.91,495 L561.182,498.458 L561.286,498.458 C561.788669,497.313994 562.403996,496.39967 563.132,495.715 C563.860004,495.03033 564.639996,494.688 565.472,494.688 C565.697334,494.688 565.922666,494.709666 566.148,494.753 C566.373334,494.796334 566.589999,494.878666 566.798,495 C566.798,495.156001 566.772,495.359665 566.72,495.611 C566.668,495.862335 566.594334,496.117999 566.499,496.378 C566.403666,496.638001 566.299667,496.884999 566.187,497.119 C566.074333,497.353001 565.957334,497.530666 565.836,497.652 L563.782,496.586 Z M570.776,506.7 C571.244002,506.7 571.711998,506.479002 572.18,506.037 C572.648002,505.594998 573.089998,505.062003 573.506,504.438 C573.922002,503.813997 574.294665,503.164003 574.624,502.488 C574.953335,501.811997 575.213332,501.248669 575.404,500.798 L576.236,496.352 C575.993332,496.178666 575.759334,496.057334 575.534,495.988 C575.308666,495.918666 574.996669,495.884 574.598,495.884 C573.800663,495.884 573.077003,496.130998 572.427,496.625 C571.776997,497.119002 571.222336,497.755996 570.763,498.536 C570.303664,499.316004 569.948335,500.182662 569.697,501.136 C569.445665,502.089338 569.32,503.025329 569.32,503.944 C569.32,504.828004 569.428332,505.508331 569.645,505.985 C569.861668,506.461669 570.238664,506.7 570.776,506.7 Z M574.884,502.904 C574.658666,503.528003 574.377002,504.160663 574.039,504.802 C573.700998,505.443337 573.311002,506.023997 572.869,506.544 C572.426998,507.064003 571.937336,507.488665 571.4,507.818 C570.862664,508.147335 570.29067,508.312 569.684,508.312 C567.881324,508.312 566.98,507.003346 566.98,504.386 C566.98,503.172661 567.153332,501.989672 567.5,500.837 C567.846668,499.684328 568.34933,498.657338 569.008,497.756 C569.66667,496.854662 570.468329,496.131003 571.413,495.585 C572.357671,495.038997 573.427994,494.766 574.624,494.766 C575.057336,494.766 575.403999,494.805 575.664,494.883 C575.924001,494.961 576.235998,495.077999 576.6,495.234 C577.293337,494.869998 578.02133,494.688 578.784,494.688 L576.444,506.57 L578.342,506.57 L578.342,507.22 C577.995332,507.497335 577.579336,507.722666 577.094,507.896 C576.608664,508.069334 576.132002,508.156 575.664,508.156 C575.161331,508.156 574.801668,508.047668 574.585,507.831 C574.368332,507.614332 574.26,507.384668 574.26,507.142 C574.26,506.829998 574.320666,506.31867 574.442,505.608 C574.563334,504.89733 574.745332,503.996005 574.988,502.904 L574.884,502.904 Z M586.246,504.074 C586.870003,503.033995 587.424664,502.024338 587.91,501.045 C588.395336,500.065662 588.811332,499.082005 589.158,498.094 C589.158,497.903332 589.136334,497.656335 589.093,497.353 C589.049666,497.049665 589.006334,496.742002 588.963,496.43 C588.919666,496.117998 588.872,495.827668 588.82,495.559 C588.768,495.290332 588.724667,495.104001 588.69,495 C589.192669,494.791999 589.708331,494.683667 590.237,494.675 C590.765669,494.666333 591.229331,494.774666 591.628,495 C591.367999,496.074672 591.012669,497.170994 590.562,498.289 C590.111331,499.407006 589.59567,500.520661 589.015,501.63 C588.43433,502.739339 587.80167,503.831328 587.117,504.906 C586.43233,505.980672 585.717337,507.011995 584.972,508 L583.75,508.312 L581.826,496.508 L580.162,496.3 L580.162,495.65 C580.266001,495.580666 580.421999,495.489667 580.63,495.377 C580.838001,495.264333 581.067665,495.156001 581.319,495.052 C581.570335,494.947999 581.830332,494.861334 582.099,494.792 C582.367668,494.722666 582.623332,494.688 582.866,494.688 C583.247335,494.688 583.520333,494.783332 583.685,494.974 C583.849667,495.164668 583.958,495.398665 584.01,495.676 L585.206,504.126 L585.336,505.764 L585.388,505.764 L586.246,504.074 Z M601.586,505.686 C601.429999,506.015335 601.204668,506.335998 600.91,506.648 C600.615332,506.960002 600.268669,507.241665 599.87,507.493 C599.471331,507.744335 599.020669,507.943666 598.518,508.091 C598.015331,508.238334 597.478003,508.312 596.906,508.312 C595.467326,508.312 594.362337,507.900337 593.591,507.077 C592.819663,506.253663 592.434,505.114007 592.434,503.658 C592.434,502.427327 592.607332,501.266005 592.954,500.174 C593.300668,499.081995 593.785997,498.128671 594.41,497.314 C595.034003,496.499329 595.792329,495.858002 596.685,495.39 C597.577671,494.921998 598.569995,494.688 599.662,494.688 C600.494004,494.688 601.208997,494.900331 601.807,495.325 C602.405003,495.749669 602.704,496.377996 602.704,497.21 C602.704,498.440673 602.093006,499.41133 600.871,500.122 C599.648994,500.83267 597.677347,501.291999 594.956,501.5 C594.886666,501.794668 594.839,502.080665 594.813,502.358 C594.787,502.635335 594.774,502.903999 594.774,503.164 C594.774,504.204005 595.038331,505.05333 595.567,505.712 C596.095669,506.37067 596.871328,506.7 597.894,506.7 C598.223335,506.7 598.548332,506.648001 598.869,506.544 C599.189668,506.439999 599.492999,506.310001 599.779,506.154 C600.065001,505.997999 600.324999,505.833334 600.559,505.66 C600.793001,505.486666 600.996666,505.330667 601.17,505.192 L601.586,505.686 Z M598.856,495.806 C598.110663,495.823333 597.417337,496.17433 596.776,496.859 C596.134663,497.54367 595.588669,498.717992 595.138,500.382 C596.819342,500.33 598.127995,500.039669 599.064,499.511 C600.000005,498.982331 600.468,498.250005 600.468,497.314 C600.468,496.949998 600.359668,496.612002 600.143,496.3 C599.926332,495.987998 599.497337,495.823333 598.856,495.806 Z M607.722,490.268 L605.876,490.034 L605.876,489.384 C606.118668,489.279999 606.400332,489.176001 606.721,489.072 C607.041668,488.967999 607.379665,488.868334 607.735,488.773 C608.090335,488.677666 608.441332,488.599667 608.788,488.539 C609.134668,488.478333 609.446665,488.448 609.724,488.448 L610.244,488.734 L606.656,506.544 L608.554,506.544 L608.554,507.22 C608.207332,507.497335 607.787002,507.722666 607.293,507.896 C606.798998,508.069334 606.318002,508.156 605.85,508.156 C605.347331,508.156 604.979001,508.043334 604.745,507.818 C604.510999,507.592666 604.394,507.332668 604.394,507.038 C604.394,506.691332 604.42,506.353335 604.472,506.024 C604.524,505.694665 604.593333,505.330669 604.68,504.932 L607.722,490.268 Z M618.122,495.624 C618.468668,495.433332 618.836998,495.260001 619.227,495.104 C619.617002,494.947999 620.002665,494.826667 620.384,494.74 L620.8,492.764 C621.042668,492.573332 621.324332,492.404334 621.645,492.257 C621.965668,492.109666 622.299332,491.966667 622.646,491.828 L623.192,492.14 L622.568,495 L625.792,495 C625.826667,495.208001 625.826667,495.424666 625.792,495.65 C625.757333,495.875334 625.670667,496.091999 625.532,496.3 L622.308,496.3 L620.67,503.84 C620.600666,504.169335 620.548667,504.459665 620.514,504.711 C620.479333,504.962335 620.462,505.191999 620.462,505.4 C620.462,505.850669 620.591999,506.179999 620.852,506.388 C621.112001,506.596001 621.397998,506.7 621.71,506.7 C622.143335,506.7 622.606998,506.617667 623.101,506.453 C623.595002,506.288333 624.049998,506.102001 624.466,505.894 L624.752,506.362 C624.595999,506.587334 624.362002,506.812666 624.05,507.038 C623.737998,507.263334 623.387002,507.471332 622.997,507.662 C622.606998,507.852668 622.199669,508.008666 621.775,508.13 C621.350331,508.251334 620.947335,508.312 620.566,508.312 C619.80333,508.312 619.205335,508.138668 618.772,507.792 C618.338664,507.445332 618.122,506.908004 618.122,506.18 C618.122,505.937332 618.143666,505.668668 618.187,505.374 C618.230334,505.079332 618.286666,504.776002 618.356,504.464 L620.072,496.3 L618.096,496.3 L618.122,495.624 Z M628.158,490.034 L628.158,489.436 C628.418001,489.331999 628.708332,489.223667 629.029,489.111 C629.349668,488.998333 629.683332,488.894334 630.03,488.799 C630.376668,488.703666 630.714665,488.625667 631.044,488.565 C631.373335,488.504333 631.685332,488.465333 631.98,488.448 L632.526,488.682 L630.186,499.602 L630.316,499.602 C630.645335,498.908663 631.017998,498.263003 631.434,497.665 C631.850002,497.066997 632.287664,496.547002 632.747,496.105 C633.206336,495.662998 633.687331,495.316335 634.19,495.065 C634.692669,494.813665 635.203997,494.688 635.724,494.688 C636.521337,494.688 637.097665,494.917664 637.453,495.377 C637.808335,495.836336 637.986,496.403997 637.986,497.08 C637.986,497.548002 637.942667,498.050664 637.856,498.588 C637.769333,499.125336 637.665334,499.645331 637.544,500.148 L636.062,506.544 L637.986,506.544 L637.986,507.22 C637.639332,507.497335 637.223336,507.722666 636.738,507.896 C636.252664,508.069334 635.767336,508.156 635.282,508.156 C634.779331,508.156 634.432668,508.052001 634.242,507.844 C634.051332,507.635999 633.956,507.410668 633.956,507.168 C633.956,506.855998 633.999333,506.505002 634.086,506.115 C634.172667,505.724998 634.259333,505.330669 634.346,504.932 L635.282,500.59 C635.403334,500.052664 635.511666,499.550002 635.607,499.082 C635.702334,498.613998 635.75,498.163336 635.75,497.73 C635.75,497.331331 635.663334,496.993335 635.49,496.716 C635.316666,496.438665 635.082668,496.3 634.788,496.3 C634.250664,496.3 633.730669,496.490665 633.228,496.872 C632.725331,497.253335 632.257335,497.712664 631.824,498.25 C631.390664,498.787336 631.009335,499.34633 630.68,499.927 C630.350665,500.50767 630.099334,500.988665 629.926,501.37 L628.548,508 L626.364,508 L629.926,490.268 L628.158,490.034 Z M649.79,505.686 C649.633999,506.015335 649.408668,506.335998 649.114,506.648 C648.819332,506.960002 648.472669,507.241665 648.074,507.493 C647.675331,507.744335 647.224669,507.943666 646.722,508.091 C646.219331,508.238334 645.682003,508.312 645.11,508.312 C643.671326,508.312 642.566337,507.900337 641.795,507.077 C641.023663,506.253663 640.638,505.114007 640.638,503.658 C640.638,502.427327 640.811332,501.266005 641.158,500.174 C641.504668,499.081995 641.989997,498.128671 642.614,497.314 C643.238003,496.499329 643.996329,495.858002 644.889,495.39 C645.781671,494.921998 646.773995,494.688 647.866,494.688 C648.698004,494.688 649.412997,494.900331 650.011,495.325 C650.609003,495.749669 650.908,496.377996 650.908,497.21 C650.908,498.440673 650.297006,499.41133 649.075,500.122 C647.852994,500.83267 645.881347,501.291999 643.16,501.5 C643.090666,501.794668 643.043,502.080665 643.017,502.358 C642.991,502.635335 642.978,502.903999 642.978,503.164 C642.978,504.204005 643.242331,505.05333 643.771,505.712 C644.299669,506.37067 645.075328,506.7 646.098,506.7 C646.427335,506.7 646.752332,506.648001 647.073,506.544 C647.393668,506.439999 647.696999,506.310001 647.983,506.154 C648.269001,505.997999 648.528999,505.833334 648.763,505.66 C648.997001,505.486666 649.200666,505.330667 649.374,505.192 L649.79,505.686 Z M647.06,495.806 C646.314663,495.823333 645.621337,496.17433 644.98,496.859 C644.338663,497.54367 643.792669,498.717992 643.342,500.382 C645.023342,500.33 646.331995,500.039669 647.268,499.511 C648.204005,498.982331 648.672,498.250005 648.672,497.314 C648.672,496.949998 648.563668,496.612002 648.347,496.3 C648.130332,495.987998 647.701337,495.823333 647.06,495.806 Z M670.538,504.074 C671.179337,503.033995 671.725331,502.028672 672.176,501.058 C672.626669,500.087328 673.016665,499.108005 673.346,498.12 C673.346,497.929332 673.324334,497.678002 673.281,497.366 L673.151,496.43 C673.107666,496.117998 673.06,495.827668 673.008,495.559 C672.956,495.290332 672.912667,495.104001 672.878,495 C673.120668,494.895999 673.380665,494.818 673.658,494.766 C673.935335,494.714 674.203999,494.688 674.464,494.688 C674.984003,494.688 675.443331,494.791999 675.842,495 C675.581999,496.074672 675.235335,497.170994 674.802,498.289 C674.368664,499.407006 673.874669,500.520661 673.32,501.63 C672.765331,502.739339 672.15867,503.831328 671.5,504.906 C670.84133,505.980672 670.139337,507.011995 669.394,508 L668.172,508.312 L667.08,500.928 L667.08,498.796 L667.002,498.796 L665.962,500.928 C665.389997,502.124006 664.809336,503.306994 664.22,504.477 C663.630664,505.647006 663.041336,506.821327 662.452,508 L661.022,508.312 L659.774,496.508 L658.11,496.3 L658.11,495.65 C658.214001,495.580666 658.369999,495.489667 658.578,495.377 C658.786001,495.264333 659.015665,495.156001 659.267,495.052 C659.518335,494.947999 659.778332,494.861334 660.047,494.792 C660.315668,494.722666 660.571332,494.688 660.814,494.688 C661.195335,494.688 661.485666,494.778999 661.685,494.961 C661.884334,495.143001 662.001333,495.381332 662.036,495.676 L662.738,503.892 L662.634,505.764 L662.686,505.764 L663.466,503.866 L667.678,495.312 L668.562,495 C668.770001,496.473341 668.943333,497.690995 669.082,498.653 C669.220667,499.615005 669.316,500.321331 669.368,500.772 L669.784,503.892 L669.81,505.764 L669.862,505.764 L670.538,504.074 Z M676.648,503.164 C676.648,502.245329 676.790999,501.287672 677.077,500.291 C677.363001,499.294328 677.800664,498.380004 678.39,497.548 C678.979336,496.715996 679.715996,496.031336 680.6,495.494 C681.484004,494.956664 682.515327,494.688 683.694,494.688 C685.046007,494.688 686.06433,495.103996 686.749,495.936 C687.43367,496.768004 687.776,497.998659 687.776,499.628 C687.776,500.772006 687.611335,501.868328 687.282,502.917 C686.952665,503.965672 686.493336,504.888663 685.904,505.686 C685.314664,506.483337 684.604004,507.120331 683.772,507.597 C682.939996,508.073669 682.021338,508.312 681.016,508.312 C679.681327,508.312 678.619671,507.883004 677.831,507.025 C677.042329,506.166996 676.648,504.880009 676.648,503.164 Z M683.174,495.806 C682.324662,495.823333 681.631336,496.100664 681.094,496.638 C680.556664,497.175336 680.132002,497.842663 679.82,498.64 C679.507998,499.437337 679.291334,500.295329 679.17,501.214 C679.048666,502.132671 678.988,502.97333 678.988,503.736 C678.988,504.758672 679.213331,505.590663 679.664,506.232 C680.114669,506.873337 680.72133,507.194 681.484,507.194 C682.09067,507.194 682.632331,506.964336 683.109,506.505 C683.585669,506.045664 683.992998,505.439004 684.331,504.685 C684.669002,503.930996 684.928999,503.077338 685.111,502.124 C685.293001,501.170662 685.384,500.208672 685.384,499.238 C685.384,498.215328 685.206335,497.392003 684.851,496.768 C684.495665,496.143997 683.93667,495.823333 683.174,495.806 Z M696.746,496.586 C696.295331,496.759334 695.788336,497.196996 695.225,497.899 C694.661664,498.601004 694.163335,499.549994 693.73,500.746 L692.17,508 L689.934,508 L692.352,496.508 L690.766,496.274 L690.766,495.624 C691.355336,495.346665 691.970663,495.134334 692.612,494.987 C693.253337,494.839666 693.833997,494.74 694.354,494.688 L694.874,495 L694.146,498.458 L694.25,498.458 C694.752669,497.313994 695.367996,496.39967 696.096,495.715 C696.824004,495.03033 697.603996,494.688 698.436,494.688 C698.661334,494.688 698.886666,494.709666 699.112,494.753 C699.337334,494.796334 699.553999,494.878666 699.762,495 C699.762,495.156001 699.736,495.359665 699.684,495.611 C699.632,495.862335 699.558334,496.117999 699.463,496.378 C699.367666,496.638001 699.263667,496.884999 699.151,497.119 C699.038333,497.353001 698.921334,497.530666 698.8,497.652 L696.746,496.586 Z M703.35,490.268 L701.504,490.034 L701.504,489.384 C701.746668,489.279999 702.028332,489.176001 702.349,489.072 C702.669668,488.967999 703.007665,488.868334 703.363,488.773 C703.718335,488.677666 704.069332,488.599667 704.416,488.539 C704.762668,488.478333 705.074665,488.448 705.352,488.448 L705.872,488.734 L702.284,506.544 L704.182,506.544 L704.182,507.22 C703.835332,507.497335 703.415002,507.722666 702.921,507.896 C702.426998,508.069334 701.946002,508.156 701.478,508.156 C700.975331,508.156 700.607001,508.043334 700.373,507.818 C700.138999,507.592666 700.022,507.332668 700.022,507.038 C700.022,506.691332 700.048,506.353335 700.1,506.024 C700.152,505.694665 700.221333,505.330669 700.308,504.932 L703.35,490.268 Z M710.994,506.7 C711.462002,506.7 711.929998,506.479002 712.398,506.037 C712.866002,505.594998 713.307998,505.062003 713.724,504.438 C714.140002,503.813997 714.512665,503.164003 714.842,502.488 C715.171335,501.811997 715.431332,501.248669 715.622,500.798 L716.454,496.352 C716.193999,496.178666 715.955668,496.061667 715.739,496.001 C715.522332,495.940333 715.214669,495.901333 714.816,495.884 C713.983996,495.901333 713.23867,496.156998 712.58,496.651 C711.92133,497.145002 711.366669,497.777663 710.916,498.549 C710.465331,499.320337 710.123001,500.182662 709.889,501.136 C709.654999,502.089338 709.538,503.025329 709.538,503.944 C709.538,504.828004 709.646332,505.508331 709.863,505.985 C710.079668,506.461669 710.456664,506.7 710.994,506.7 Z M715.102,502.904 C714.876666,503.528003 714.590668,504.160663 714.244,504.802 C713.897332,505.443337 713.503002,506.023997 713.061,506.544 C712.618998,507.064003 712.133669,507.488665 711.605,507.818 C711.076331,508.147335 710.50867,508.312 709.902,508.312 C708.099324,508.312 707.198,506.99468 707.198,504.36 C707.198,503.129327 707.371332,501.937672 707.718,500.785 C708.064668,499.632328 708.56733,498.609671 709.226,497.717 C709.88467,496.824329 710.681995,496.109336 711.618,495.572 C712.554005,495.034664 713.619994,494.766 714.816,494.766 C715.266669,494.766 715.604666,494.796333 715.83,494.857 C716.055334,494.917667 716.341332,495.025999 716.688,495.182 L717.676,490.268 L715.856,490.034 L715.856,489.384 C716.116001,489.279999 716.401998,489.180334 716.714,489.085 C717.026002,488.989666 717.350998,488.903 717.689,488.825 C718.027002,488.747 718.369332,488.673334 718.716,488.604 C719.062668,488.534666 719.383332,488.482667 719.678,488.448 L720.224,488.656 L716.662,506.57 L718.56,506.57 L718.56,507.22 C718.213332,507.497335 717.797336,507.722666 717.312,507.896 C716.826664,508.069334 716.350002,508.156 715.882,508.156 C715.379331,508.156 715.019668,508.047668 714.803,507.831 C714.586332,507.614332 714.478,507.384668 714.478,507.142 C714.478,506.829998 714.538666,506.31867 714.66,505.608 C714.781334,504.89733 714.963332,503.996005 715.206,502.904 L715.102,502.904 Z M727.66,495.624 C728.006668,495.433332 728.374998,495.260001 728.765,495.104 C729.155002,494.947999 729.540665,494.826667 729.922,494.74 L730.338,492.764 C730.580668,492.573332 730.862332,492.404334 731.183,492.257 C731.503668,492.109666 731.837332,491.966667 732.184,491.828 L732.73,492.14 L732.106,495 L735.33,495 C735.364667,495.208001 735.364667,495.424666 735.33,495.65 C735.295333,495.875334 735.208667,496.091999 735.07,496.3 L731.846,496.3 L730.208,503.84 C730.138666,504.169335 730.086667,504.459665 730.052,504.711 C730.017333,504.962335 730,505.191999 730,505.4 C730,505.850669 730.129999,506.179999 730.39,506.388 C730.650001,506.596001 730.935998,506.7 731.248,506.7 C731.681335,506.7 732.144998,506.617667 732.639,506.453 C733.133002,506.288333 733.587998,506.102001 734.004,505.894 L734.29,506.362 C734.133999,506.587334 733.900002,506.812666 733.588,507.038 C733.275998,507.263334 732.925002,507.471332 732.535,507.662 C732.144998,507.852668 731.737669,508.008666 731.313,508.13 C730.888331,508.251334 730.485335,508.312 730.104,508.312 C729.34133,508.312 728.743335,508.138668 728.31,507.792 C727.876664,507.445332 727.66,506.908004 727.66,506.18 C727.66,505.937332 727.681666,505.668668 727.725,505.374 C727.768334,505.079332 727.824666,504.776002 727.894,504.464 L729.61,496.3 L727.634,496.3 L727.66,495.624 Z M736.084,503.164 C736.084,502.245329 736.226999,501.287672 736.513,500.291 C736.799001,499.294328 737.236664,498.380004 737.826,497.548 C738.415336,496.715996 739.151996,496.031336 740.036,495.494 C740.920004,494.956664 741.951327,494.688 743.13,494.688 C744.482007,494.688 745.50033,495.103996 746.185,495.936 C746.86967,496.768004 747.212,497.998659 747.212,499.628 C747.212,500.772006 747.047335,501.868328 746.718,502.917 C746.388665,503.965672 745.929336,504.888663 745.34,505.686 C744.750664,506.483337 744.040004,507.120331 743.208,507.597 C742.375996,508.073669 741.457338,508.312 740.452,508.312 C739.117327,508.312 738.055671,507.883004 737.267,507.025 C736.478329,506.166996 736.084,504.880009 736.084,503.164 Z M742.61,495.806 C741.760662,495.823333 741.067336,496.100664 740.53,496.638 C739.992664,497.175336 739.568002,497.842663 739.256,498.64 C738.943998,499.437337 738.727334,500.295329 738.606,501.214 C738.484666,502.132671 738.424,502.97333 738.424,503.736 C738.424,504.758672 738.649331,505.590663 739.1,506.232 C739.550669,506.873337 740.15733,507.194 740.92,507.194 C741.52667,507.194 742.068331,506.964336 742.545,506.505 C743.021669,506.045664 743.428998,505.439004 743.767,504.685 C744.105002,503.930996 744.364999,503.077338 744.547,502.124 C744.729001,501.170662 744.82,500.208672 744.82,499.238 C744.82,498.215328 744.642335,497.392003 744.287,496.768 C743.931665,496.143997 743.37267,495.823333 742.61,495.806 Z M756.39,496.274 L756.39,495.624 C756.650001,495.519999 756.944665,495.411667 757.274,495.299 C757.603335,495.186333 757.941332,495.086667 758.288,495 C758.634668,494.913333 758.963998,494.839667 759.276,494.779 C759.588002,494.718333 759.865332,494.688 760.108,494.688 L760.576,495 L758.132,506.544 L760.056,506.544 L760.056,507.22 C759.691998,507.497335 759.267336,507.722666 758.782,507.896 C758.296664,508.069334 757.820002,508.156 757.352,508.156 C756.849331,508.156 756.489668,508.043334 756.273,507.818 C756.056332,507.592666 755.948,507.332668 755.948,507.038 C755.948,506.691332 755.974,506.353335 756.026,506.024 C756.078,505.694665 756.147333,505.330669 756.234,504.932 L758.054,496.534 L756.39,496.274 Z M758.496,490.502 C758.496,490.051331 758.634665,489.696001 758.912,489.436 C759.189335,489.175999 759.553331,489.046 760.004,489.046 C760.489336,489.046 760.870665,489.175999 761.148,489.436 C761.425335,489.696001 761.564,490.051331 761.564,490.502 C761.564,490.935336 761.425335,491.273332 761.148,491.516 C760.870665,491.758668 760.489336,491.88 760.004,491.88 C759.553331,491.88 759.189335,491.758668 758.912,491.516 C758.634665,491.273332 758.496,490.935336 758.496,490.502 Z M771.808,500.59 C771.929334,500.052664 772.037666,499.554336 772.133,499.095 C772.228334,498.635664 772.276,498.180669 772.276,497.73 C772.276,497.331331 772.185001,496.993335 772.003,496.716 C771.820999,496.438665 771.530669,496.3 771.132,496.3 C770.663998,496.3 770.187336,496.490665 769.702,496.872 C769.216664,497.253335 768.766002,497.712664 768.35,498.25 C767.933998,498.787336 767.557002,499.34633 767.219,499.927 C766.880998,500.50767 766.625334,500.988665 766.452,501.37 L765.074,508 L762.89,508 L765.178,496.508 L763.592,496.274 L763.644,495.624 C763.886668,495.502666 764.159665,495.385667 764.463,495.273 C764.766335,495.160333 765.078332,495.060667 765.399,494.974 C765.719668,494.887333 766.031665,494.818 766.335,494.766 C766.638335,494.714 766.919999,494.688 767.18,494.688 L767.7,495 L766.712,499.602 L766.842,499.602 C767.171335,498.908663 767.548331,498.263003 767.973,497.665 C768.397669,497.066997 768.848331,496.547002 769.325,496.105 C769.801669,495.662998 770.299997,495.316335 770.82,495.065 C771.340003,494.813665 771.868664,494.688 772.406,494.688 C773.134004,494.688 773.666998,494.917664 774.005,495.377 C774.343002,495.836336 774.512,496.412663 774.512,497.106 C774.512,497.487335 774.468667,497.963997 774.382,498.536 C774.295333,499.108003 774.191334,499.645331 774.07,500.148 L772.588,506.544 L774.512,506.544 L774.512,507.22 C774.165332,507.497335 773.745002,507.722666 773.251,507.896 C772.756998,508.069334 772.276002,508.156 771.808,508.156 C771.305331,508.156 770.958668,508.052001 770.768,507.844 C770.577332,507.635999 770.482,507.410668 770.482,507.168 C770.482,506.838665 770.525333,506.479002 770.612,506.089 C770.698667,505.698998 770.785333,505.304669 770.872,504.906 L771.808,500.59 Z M782.754,504.932 C782.736667,504.515998 782.619668,504.156335 782.403,503.853 C782.186332,503.549665 781.909002,503.259335 781.571,502.982 C781.232998,502.704665 780.873335,502.427335 780.492,502.15 C780.110665,501.872665 779.751002,501.565002 779.413,501.227 C779.074998,500.888998 778.797668,500.499002 778.581,500.057 C778.364332,499.614998 778.256,499.082003 778.256,498.458 C778.256,497.833997 778.377332,497.288002 778.62,496.82 C778.862668,496.351998 779.196331,495.962002 779.621,495.65 C780.045669,495.337998 780.556997,495.099667 781.155,494.935 C781.753003,494.770333 782.40733,494.688 783.118,494.688 C783.568669,494.688 784.075664,494.727 784.639,494.805 C785.202336,494.883 785.735331,495.069332 786.238,495.364 C786.238,495.554668 786.203334,495.775665 786.134,496.027 C786.064666,496.278335 785.973667,496.520999 785.861,496.755 C785.748333,496.989001 785.622667,497.205666 785.484,497.405 C785.345333,497.604334 785.198001,497.738666 785.042,497.808 L783.118,495.806 C782.753998,495.823333 782.416002,495.866666 782.104,495.936 C781.791998,496.005334 781.519001,496.117999 781.285,496.274 C781.050999,496.430001 780.869001,496.633665 780.739,496.885 C780.608999,497.136335 780.544,497.452665 780.544,497.834 C780.544,498.284669 780.656666,498.670332 780.882,498.991 C781.107334,499.311668 781.388998,499.614999 781.727,499.901 C782.065002,500.187001 782.428998,500.464332 782.819,500.733 C783.209002,501.001668 783.572998,501.304998 783.911,501.643 C784.249002,501.981002 784.530666,502.370998 784.756,502.813 C784.981334,503.255002 785.094,503.77933 785.094,504.386 C785.094,505.010003 784.951001,505.564664 784.665,506.05 C784.378999,506.535336 783.989002,506.946998 783.495,507.285 C783.000998,507.623002 782.429003,507.878666 781.779,508.052 C781.128997,508.225334 780.440004,508.312 779.712,508.312 C778.983996,508.312 778.321003,508.238334 777.723,508.091 C777.124997,507.943666 776.652668,507.757334 776.306,507.532 C776.392667,507.081331 776.496666,506.643669 776.618,506.219 C776.739334,505.794331 776.990665,505.400002 777.372,505.036 L779.712,507.194 C780.076002,507.194 780.435665,507.150667 780.791,507.064 C781.146335,506.977333 781.466999,506.838668 781.753,506.648 C782.039001,506.457332 782.272999,506.223335 782.455,505.946 C782.637001,505.668665 782.736667,505.330669 782.754,504.932 Z M789.514,511.796 C790.12067,511.900001 790.72733,512.116665 791.334,512.446 L791.334,513.2 L787.252,513.2 L787.018,512.966 L788.136,507.792 L790.554,496.508 L788.968,496.274 L788.968,495.624 C789.540003,495.381332 790.14233,495.164668 790.775,494.974 C791.40767,494.783332 792.001331,494.688 792.556,494.688 L793.076,495 L792.01,499.576 L792.114,499.576 C792.426002,498.882663 792.768331,498.241336 793.141,497.652 C793.513669,497.062664 793.916664,496.547002 794.35,496.105 C794.783335,495.662998 795.251331,495.316335 795.754,495.065 C796.256669,494.813665 796.793997,494.688 797.366,494.688 C797.747335,494.688 798.111332,494.761666 798.458,494.909 C798.804668,495.056334 799.107999,495.281665 799.368,495.585 C799.628001,495.888335 799.831666,496.265331 799.979,496.716 C800.126334,497.166669 800.2,497.686664 800.2,498.276 C800.2,499.610673 800.000669,500.884661 799.602,502.098 C799.203331,503.311339 798.66167,504.377329 797.977,505.296 C797.29233,506.214671 796.490671,506.946997 795.572,507.493 C794.653329,508.039003 793.665339,508.312 792.608,508.312 C792.313332,508.312 792.062001,508.303333 791.854,508.286 C791.645999,508.268667 791.464001,508.238334 791.308,508.195 C791.151999,508.151666 791.000334,508.095334 790.853,508.026 C790.705666,507.956666 790.545334,507.878667 790.372,507.792 L789.514,511.796 Z M796.144,496.3 C795.641331,496.3 795.164669,496.494998 794.714,496.885 C794.263331,497.275002 793.843002,497.747331 793.453,498.302 C793.062998,498.856669 792.712002,499.441664 792.4,500.057 C792.087998,500.672336 791.836668,501.213998 791.646,501.682 L790.632,506.596 C790.874668,506.804001 791.130332,506.955666 791.399,507.051 C791.667668,507.146334 792.096664,507.194 792.686,507.194 C793.379337,507.194 794.033664,506.938336 794.649,506.427 C795.264336,505.915664 795.801664,505.261337 796.261,504.464 C796.720336,503.666663 797.084332,502.778338 797.353,501.799 C797.621668,500.819662 797.756,499.853338 797.756,498.9 C797.756,498.067996 797.613001,497.426669 797.327,496.976 C797.040999,496.525331 796.646669,496.3 796.144,496.3 Z M802.904,496.274 L802.904,495.624 C803.164001,495.519999 803.458665,495.411667 803.788,495.299 C804.117335,495.186333 804.455332,495.086667 804.802,495 C805.148668,494.913333 805.477998,494.839667 805.79,494.779 C806.102002,494.718333 806.379332,494.688 806.622,494.688 L807.09,495 L804.646,506.544 L806.57,506.544 L806.57,507.22 C806.205998,507.497335 805.781336,507.722666 805.296,507.896 C804.810664,508.069334 804.334002,508.156 803.866,508.156 C803.363331,508.156 803.003668,508.043334 802.787,507.818 C802.570332,507.592666 802.462,507.332668 802.462,507.038 C802.462,506.691332 802.488,506.353335 802.54,506.024 C802.592,505.694665 802.661333,505.330669 802.748,504.932 L804.568,496.534 L802.904,496.274 Z M805.01,490.502 C805.01,490.051331 805.148665,489.696001 805.426,489.436 C805.703335,489.175999 806.067331,489.046 806.518,489.046 C807.003336,489.046 807.384665,489.175999 807.662,489.436 C807.939335,489.696001 808.078,490.051331 808.078,490.502 C808.078,490.935336 807.939335,491.273332 807.662,491.516 C807.384665,491.758668 807.003336,491.88 806.518,491.88 C806.067331,491.88 805.703335,491.758668 805.426,491.516 C805.148665,491.273332 805.01,490.935336 805.01,490.502 Z M816.216,496.586 C815.765331,496.759334 815.258336,497.196996 814.695,497.899 C814.131664,498.601004 813.633335,499.549994 813.2,500.746 L811.64,508 L809.404,508 L811.822,496.508 L810.236,496.274 L810.236,495.624 C810.825336,495.346665 811.440663,495.134334 812.082,494.987 C812.723337,494.839666 813.303997,494.74 813.824,494.688 L814.344,495 L813.616,498.458 L813.72,498.458 C814.222669,497.313994 814.837996,496.39967 815.566,495.715 C816.294004,495.03033 817.073996,494.688 817.906,494.688 C818.131334,494.688 818.356666,494.709666 818.582,494.753 C818.807334,494.796334 819.023999,494.878666 819.232,495 C819.232,495.156001 819.206,495.359665 819.154,495.611 C819.102,495.862335 819.028334,496.117999 818.933,496.378 C818.837666,496.638001 818.733667,496.884999 818.621,497.119 C818.508333,497.353001 818.391334,497.530666 818.27,497.652 L816.216,496.586 Z M828.488,505.686 C828.331999,506.015335 828.106668,506.335998 827.812,506.648 C827.517332,506.960002 827.170669,507.241665 826.772,507.493 C826.373331,507.744335 825.922669,507.943666 825.42,508.091 C824.917331,508.238334 824.380003,508.312 823.808,508.312 C822.369326,508.312 821.264337,507.900337 820.493,507.077 C819.721663,506.253663 819.336,505.114007 819.336,503.658 C819.336,502.427327 819.509332,501.266005 819.856,500.174 C820.202668,499.081995 820.687997,498.128671 821.312,497.314 C821.936003,496.499329 822.694329,495.858002 823.587,495.39 C824.479671,494.921998 825.471995,494.688 826.564,494.688 C827.396004,494.688 828.110997,494.900331 828.709,495.325 C829.307003,495.749669 829.606,496.377996 829.606,497.21 C829.606,498.440673 828.995006,499.41133 827.773,500.122 C826.550994,500.83267 824.579347,501.291999 821.858,501.5 C821.788666,501.794668 821.741,502.080665 821.715,502.358 C821.689,502.635335 821.676,502.903999 821.676,503.164 C821.676,504.204005 821.940331,505.05333 822.469,505.712 C822.997669,506.37067 823.773328,506.7 824.796,506.7 C825.125335,506.7 825.450332,506.648001 825.771,506.544 C826.091668,506.439999 826.394999,506.310001 826.681,506.154 C826.967001,505.997999 827.226999,505.833334 827.461,505.66 C827.695001,505.486666 827.898666,505.330667 828.072,505.192 L828.488,505.686 Z M825.758,495.806 C825.012663,495.823333 824.319337,496.17433 823.678,496.859 C823.036663,497.54367 822.490669,498.717992 822.04,500.382 C823.721342,500.33 825.029995,500.039669 825.966,499.511 C826.902005,498.982331 827.37,498.250005 827.37,497.314 C827.37,496.949998 827.261668,496.612002 827.045,496.3 C826.828332,495.987998 826.399337,495.823333 825.758,495.806 Z M838.94,511.796 C839.54667,511.900001 840.15333,512.116665 840.76,512.446 L840.76,513.2 L836.678,513.2 L836.444,512.966 L837.562,507.792 L839.98,496.508 L838.394,496.274 L838.394,495.624 C838.966003,495.381332 839.56833,495.164668 840.201,494.974 C840.83367,494.783332 841.427331,494.688 841.982,494.688 L842.502,495 L841.436,499.576 L841.54,499.576 C841.852002,498.882663 842.194331,498.241336 842.567,497.652 C842.939669,497.062664 843.342664,496.547002 843.776,496.105 C844.209335,495.662998 844.677331,495.316335 845.18,495.065 C845.682669,494.813665 846.219997,494.688 846.792,494.688 C847.173335,494.688 847.537332,494.761666 847.884,494.909 C848.230668,495.056334 848.533999,495.281665 848.794,495.585 C849.054001,495.888335 849.257666,496.265331 849.405,496.716 C849.552334,497.166669 849.626,497.686664 849.626,498.276 C849.626,499.610673 849.426669,500.884661 849.028,502.098 C848.629331,503.311339 848.08767,504.377329 847.403,505.296 C846.71833,506.214671 845.916671,506.946997 844.998,507.493 C844.079329,508.039003 843.091339,508.312 842.034,508.312 C841.739332,508.312 841.488001,508.303333 841.28,508.286 C841.071999,508.268667 840.890001,508.238334 840.734,508.195 C840.577999,508.151666 840.426334,508.095334 840.279,508.026 C840.131666,507.956666 839.971334,507.878667 839.798,507.792 L838.94,511.796 Z M845.57,496.3 C845.067331,496.3 844.590669,496.494998 844.14,496.885 C843.689331,497.275002 843.269002,497.747331 842.879,498.302 C842.488998,498.856669 842.138002,499.441664 841.826,500.057 C841.513998,500.672336 841.262668,501.213998 841.072,501.682 L840.058,506.596 C840.300668,506.804001 840.556332,506.955666 840.825,507.051 C841.093668,507.146334 841.522664,507.194 842.112,507.194 C842.805337,507.194 843.459664,506.938336 844.075,506.427 C844.690336,505.915664 845.227664,505.261337 845.687,504.464 C846.146336,503.666663 846.510332,502.778338 846.779,501.799 C847.047668,500.819662 847.182,499.853338 847.182,498.9 C847.182,498.067996 847.039001,497.426669 846.753,496.976 C846.466999,496.525331 846.072669,496.3 845.57,496.3 Z M860.702,505.686 C860.545999,506.015335 860.320668,506.335998 860.026,506.648 C859.731332,506.960002 859.384669,507.241665 858.986,507.493 C858.587331,507.744335 858.136669,507.943666 857.634,508.091 C857.131331,508.238334 856.594003,508.312 856.022,508.312 C854.583326,508.312 853.478337,507.900337 852.707,507.077 C851.935663,506.253663 851.55,505.114007 851.55,503.658 C851.55,502.427327 851.723332,501.266005 852.07,500.174 C852.416668,499.081995 852.901997,498.128671 853.526,497.314 C854.150003,496.499329 854.908329,495.858002 855.801,495.39 C856.693671,494.921998 857.685995,494.688 858.778,494.688 C859.610004,494.688 860.324997,494.900331 860.923,495.325 C861.521003,495.749669 861.82,496.377996 861.82,497.21 C861.82,498.440673 861.209006,499.41133 859.987,500.122 C858.764994,500.83267 856.793347,501.291999 854.072,501.5 C854.002666,501.794668 853.955,502.080665 853.929,502.358 C853.903,502.635335 853.89,502.903999 853.89,503.164 C853.89,504.204005 854.154331,505.05333 854.683,505.712 C855.211669,506.37067 855.987328,506.7 857.01,506.7 C857.339335,506.7 857.664332,506.648001 857.985,506.544 C858.305668,506.439999 858.608999,506.310001 858.895,506.154 C859.181001,505.997999 859.440999,505.833334 859.675,505.66 C859.909001,505.486666 860.112666,505.330667 860.286,505.192 L860.702,505.686 Z M857.972,495.806 C857.226663,495.823333 856.533337,496.17433 855.892,496.859 C855.250663,497.54367 854.704669,498.717992 854.254,500.382 C855.935342,500.33 857.243995,500.039669 858.18,499.511 C859.116005,498.982331 859.584,498.250005 859.584,497.314 C859.584,496.949998 859.475668,496.612002 859.259,496.3 C859.042332,495.987998 858.613337,495.823333 857.972,495.806 Z M863.38,503.164 C863.38,502.245329 863.522999,501.287672 863.809,500.291 C864.095001,499.294328 864.532664,498.380004 865.122,497.548 C865.711336,496.715996 866.447996,496.031336 867.332,495.494 C868.216004,494.956664 869.247327,494.688 870.426,494.688 C871.778007,494.688 872.79633,495.103996 873.481,495.936 C874.16567,496.768004 874.508,497.998659 874.508,499.628 C874.508,500.772006 874.343335,501.868328 874.014,502.917 C873.684665,503.965672 873.225336,504.888663 872.636,505.686 C872.046664,506.483337 871.336004,507.120331 870.504,507.597 C869.671996,508.073669 868.753338,508.312 867.748,508.312 C866.413327,508.312 865.351671,507.883004 864.563,507.025 C863.774329,506.166996 863.38,504.880009 863.38,503.164 Z M869.906,495.806 C869.056662,495.823333 868.363336,496.100664 867.826,496.638 C867.288664,497.175336 866.864002,497.842663 866.552,498.64 C866.239998,499.437337 866.023334,500.295329 865.902,501.214 C865.780666,502.132671 865.72,502.97333 865.72,503.736 C865.72,504.758672 865.945331,505.590663 866.396,506.232 C866.846669,506.873337 867.45333,507.194 868.216,507.194 C868.82267,507.194 869.364331,506.964336 869.841,506.505 C870.317669,506.045664 870.724998,505.439004 871.063,504.685 C871.401002,503.930996 871.660999,503.077338 871.843,502.124 C872.025001,501.170662 872.116,500.208672 872.116,499.238 C872.116,498.215328 871.938335,497.392003 871.583,496.768 C871.227665,496.143997 870.66867,495.823333 869.906,495.806 Z M878.07,511.796 C878.67667,511.900001 879.28333,512.116665 879.89,512.446 L879.89,513.2 L875.808,513.2 L875.574,512.966 L876.692,507.792 L879.11,496.508 L877.524,496.274 L877.524,495.624 C878.096003,495.381332 878.69833,495.164668 879.331,494.974 C879.96367,494.783332 880.557331,494.688 881.112,494.688 L881.632,495 L880.566,499.576 L880.67,499.576 C880.982002,498.882663 881.324331,498.241336 881.697,497.652 C882.069669,497.062664 882.472664,496.547002 882.906,496.105 C883.339335,495.662998 883.807331,495.316335 884.31,495.065 C884.812669,494.813665 885.349997,494.688 885.922,494.688 C886.303335,494.688 886.667332,494.761666 887.014,494.909 C887.360668,495.056334 887.663999,495.281665 887.924,495.585 C888.184001,495.888335 888.387666,496.265331 888.535,496.716 C888.682334,497.166669 888.756,497.686664 888.756,498.276 C888.756,499.610673 888.556669,500.884661 888.158,502.098 C887.759331,503.311339 887.21767,504.377329 886.533,505.296 C885.84833,506.214671 885.046671,506.946997 884.128,507.493 C883.209329,508.039003 882.221339,508.312 881.164,508.312 C880.869332,508.312 880.618001,508.303333 880.41,508.286 C880.201999,508.268667 880.020001,508.238334 879.864,508.195 C879.707999,508.151666 879.556334,508.095334 879.409,508.026 C879.261666,507.956666 879.101334,507.878667 878.928,507.792 L878.07,511.796 Z M884.7,496.3 C884.197331,496.3 883.720669,496.494998 883.27,496.885 C882.819331,497.275002 882.399002,497.747331 882.009,498.302 C881.618998,498.856669 881.268002,499.441664 880.956,500.057 C880.643998,500.672336 880.392668,501.213998 880.202,501.682 L879.188,506.596 C879.430668,506.804001 879.686332,506.955666 879.955,507.051 C880.223668,507.146334 880.652664,507.194 881.242,507.194 C881.935337,507.194 882.589664,506.938336 883.205,506.427 C883.820336,505.915664 884.357664,505.261337 884.817,504.464 C885.276336,503.666663 885.640332,502.778338 885.909,501.799 C886.177668,500.819662 886.312,499.853338 886.312,498.9 C886.312,498.067996 886.169001,497.426669 885.883,496.976 C885.596999,496.525331 885.202669,496.3 884.7,496.3 Z M894.164,490.268 L892.318,490.034 L892.318,489.384 C892.560668,489.279999 892.842332,489.176001 893.163,489.072 C893.483668,488.967999 893.821665,488.868334 894.177,488.773 C894.532335,488.677666 894.883332,488.599667 895.23,488.539 C895.576668,488.478333 895.888665,488.448 896.166,488.448 L896.686,488.734 L893.098,506.544 L894.996,506.544 L894.996,507.22 C894.649332,507.497335 894.229002,507.722666 893.735,507.896 C893.240998,508.069334 892.760002,508.156 892.292,508.156 C891.789331,508.156 891.421001,508.043334 891.187,507.818 C890.952999,507.592666 890.836,507.332668 890.836,507.038 C890.836,506.691332 890.862,506.353335 890.914,506.024 C890.966,505.694665 891.035333,505.330669 891.122,504.932 L894.164,490.268 Z M907.034,505.686 C906.877999,506.015335 906.652668,506.335998 906.358,506.648 C906.063332,506.960002 905.716669,507.241665 905.318,507.493 C904.919331,507.744335 904.468669,507.943666 903.966,508.091 C903.463331,508.238334 902.926003,508.312 902.354,508.312 C900.915326,508.312 899.810337,507.900337 899.039,507.077 C898.267663,506.253663 897.882,505.114007 897.882,503.658 C897.882,502.427327 898.055332,501.266005 898.402,500.174 C898.748668,499.081995 899.233997,498.128671 899.858,497.314 C900.482003,496.499329 901.240329,495.858002 902.133,495.39 C903.025671,494.921998 904.017995,494.688 905.11,494.688 C905.942004,494.688 906.656997,494.900331 907.255,495.325 C907.853003,495.749669 908.152,496.377996 908.152,497.21 C908.152,498.440673 907.541006,499.41133 906.319,500.122 C905.096994,500.83267 903.125347,501.291999 900.404,501.5 C900.334666,501.794668 900.287,502.080665 900.261,502.358 C900.235,502.635335 900.222,502.903999 900.222,503.164 C900.222,504.204005 900.486331,505.05333 901.015,505.712 C901.543669,506.37067 902.319328,506.7 903.342,506.7 C903.671335,506.7 903.996332,506.648001 904.317,506.544 C904.637668,506.439999 904.940999,506.310001 905.227,506.154 C905.513001,505.997999 905.772999,505.833334 906.007,505.66 C906.241001,505.486666 906.444666,505.330667 906.618,505.192 L907.034,505.686 Z M904.304,495.806 C903.558663,495.823333 902.865337,496.17433 902.224,496.859 C901.582663,497.54367 901.036669,498.717992 900.586,500.382 C902.267342,500.33 903.575995,500.039669 904.512,499.511 C905.448005,498.982331 905.916,498.250005 905.916,497.314 C905.916,496.949998 905.807668,496.612002 905.591,496.3 C905.374332,495.987998 904.945337,495.823333 904.304,495.806 Z" id="I-travel-the-world-t"></path>
        </g>
    </g>
</svg>
