<?xml version="1.0" encoding="UTF-8"?>
<svg width="86px" height="87px" viewBox="0 0 86 87" version="1.1" xmlns="http://www.w3.org/2000/svg" xmlns:xlink="http://www.w3.org/1999/xlink">
    <!-- Generator: Sketch 42 (36781) - http://www.bohemiancoding.com/sketch -->
    <title>Group</title>
    <desc>Created with Sketch.</desc>
    <defs></defs>
    <g id="Design" stroke="none" stroke-width="1" fill="none" fill-rule="evenodd">
        <g id="Desktop-HD" transform="translate(-677.000000, -1128.000000)" fill-rule="nonzero" fill="#1A1A1A">
            <g id="Group" transform="translate(677.000000, 1128.000000)">
                <path d="M80.1815625,0.778128458 L5.8184375,0.778128458 L5.8184375,61.2376838 L0,61.2376838 L0,63.9313597 L34.1661875,63.9313597 L23.9321875,85.8551877 L26.3670625,86.9973063 L32.68,73.4750534 L53.325375,73.4750534 L59.6383125,86.9973063 L62.0731875,85.8551877 L51.8391875,63.9313597 L86,63.9313597 L86,61.2376838 L80.1815625,61.2376838 L80.1815625,0.778128458 Z M8.5059375,3.47180435 L77.4940625,3.47180435 L77.4940625,61.2376838 L8.5059375,61.2376838 L8.5059375,3.47180435 Z M52.0649375,70.7813775 L33.9350625,70.7813775 L37.1331875,63.9313597 L48.8668125,63.9313597 L52.0649375,70.7813775 Z" id="Shape"></path>
                <rect id="Rectangle-path" x="30.057" y="14.4350652" width="38.382875" height="2.69367589"></rect>
                <rect id="Rectangle-path" x="30.057" y="25.4602806" width="38.382875" height="2.69367589"></rect>
                <path d="M21.72575,22.6319209 C19.430625,22.6319209 17.560125,24.5040257 17.560125,26.8071186 C17.560125,29.1102115 19.4279375,30.9823162 21.72575,30.9823162 C24.0235625,30.9823162 25.891375,29.1102115 25.891375,26.8071186 C25.891375,24.5040257 24.020875,22.6319209 21.72575,22.6319209 Z M21.72575,28.2886403 C20.9114375,28.2886403 20.247625,27.6233024 20.247625,26.8071186 C20.247625,25.9909348 20.9114375,25.3255968 21.72575,25.3255968 C22.5400625,25.3255968 23.203875,25.9909348 23.203875,26.8071186 C23.203875,27.6233024 22.5400625,28.2886403 21.72575,28.2886403 Z" id="Shape"></path>
                <rect id="Rectangle-path" x="30.057" y="36.4828024" width="38.382875" height="2.69367589"></rect>
                <path d="M21.72575,33.6544427 C19.430625,33.6544427 17.560125,35.5265474 17.560125,37.8296403 C17.560125,40.1327332 19.4279375,42.0048379 21.72575,42.0048379 C24.0235625,42.0048379 25.891375,40.1327332 25.891375,37.8296403 C25.891375,35.5265474 24.020875,33.6544427 21.72575,33.6544427 Z M21.72575,39.3111621 C20.9114375,39.3111621 20.247625,38.6458241 20.247625,37.8296403 C20.247625,37.0134565 20.9114375,36.3481186 21.72575,36.3481186 C22.5400625,36.3481186 23.203875,37.0134565 23.203875,37.8296403 C23.203875,38.6458241 22.5400625,39.3111621 21.72575,39.3111621 Z" id="Shape"></path>
                <rect id="Rectangle-path" x="30.057" y="47.5080178" width="38.382875" height="2.69367589"></rect>
                <path d="M21.72575,44.6769644 C19.430625,44.6769644 17.560125,46.5490692 17.560125,48.8548557 C17.560125,51.1552549 19.4279375,53.0300534 21.72575,53.0300534 C24.0235625,53.0300534 25.891375,51.1579486 25.891375,48.8548557 C25.891375,46.5490692 24.020875,44.6769644 21.72575,44.6769644 Z M21.72575,50.3336838 C20.9114375,50.3336838 20.247625,49.6683458 20.247625,48.8521621 C20.247625,48.0332846 20.9114375,47.3679466 21.72575,47.3679466 C22.5400625,47.3679466 23.203875,48.0332846 23.203875,48.8521621 C23.203875,49.6683458 22.5400625,50.3336838 21.72575,50.3336838 Z" id="Shape"></path>
                <polygon id="Shape" points="20.62925 15.2862668 18.4496875 13.1447945 16.56575 15.0653854 20.838875 19.2675198 26.977125 11.7898755 24.9050625 10.0793913"></polygon>
            </g>
        </g>
    </g>
</svg>