<?xml version="1.0" encoding="UTF-8"?>
<svg width="23px" height="18px" viewBox="0 0 23 18" version="1.1" xmlns="http://www.w3.org/2000/svg" xmlns:xlink="http://www.w3.org/1999/xlink">
    <!-- Generator: Sketch 44.1 (41455) - http://www.bohemiancoding.com/sketch -->
    <title></title>
    <desc>Created with Sketch.</desc>
    <defs></defs>
    <g id="Design" stroke="none" stroke-width="1" fill="none" fill-rule="evenodd" opacity="0.400000006">
        <g id="Desktop-HD" transform="translate(-282.000000, -4068.000000)" fill="#FFFFFF">
            <path d="M304.125,4070.15625 C303.562497,4071.03125 302.812505,4071.8125 301.875,4072.5 L301.875,4073.0625 C301.875,4076.34377 300.695324,4079.3203 298.335938,4081.99219 C295.976551,4084.66408 292.84377,4086 288.9375,4086 C286.437487,4086 284.125011,4085.31251 282,4083.9375 C282.500002,4084 282.859374,4084.03125 283.078125,4084.03125 C285.171885,4084.03125 287.046867,4083.37501 288.703125,4082.0625 C287.73437,4082.03125 286.859379,4081.72657 286.078125,4081.14844 C285.296871,4080.57031 284.765626,4079.82813 284.484375,4078.92188 C284.859377,4078.98438 285.140624,4079.01562 285.328125,4079.01562 C285.640627,4079.01562 286.046873,4078.95313 286.546875,4078.82812 C285.51562,4078.60937 284.648441,4078.08594 283.945312,4077.25781 C283.242184,4076.42968 282.890625,4075.46876 282.890625,4074.375 L282.890625,4074.32812 C283.578128,4074.70313 284.265622,4074.89062 284.953125,4074.89062 C283.609368,4074.01562 282.9375,4072.75001 282.9375,4071.09375 C282.9375,4070.3125 283.140623,4069.5625 283.546875,4068.84375 C285.953137,4071.81251 289.062481,4073.39062 292.875,4073.57812 C292.8125,4073.35937 292.78125,4073.01563 292.78125,4072.54688 C292.78125,4071.26562 293.218746,4070.1875 294.09375,4069.3125 C294.968754,4068.4375 296.046869,4068 297.328125,4068 C298.609381,4068 299.70312,4068.48437 300.609375,4069.45312 C301.54688,4069.29687 302.51562,4068.92188 303.515625,4068.32812 C303.203123,4069.42188 302.531255,4070.26562 301.5,4070.85938 C302.468755,4070.76562 303.343746,4070.53125 304.125,4070.15625 Z" id=""></path>
        </g>
    </g>
</svg>