<?xml version="1.0" encoding="UTF-8"?>
<svg width="24px" height="18px" viewBox="0 0 24 18" version="1.1" xmlns="http://www.w3.org/2000/svg" xmlns:xlink="http://www.w3.org/1999/xlink">
    <!-- Generator: Sketch 44.1 (41455) - http://www.bohemiancoding.com/sketch -->
    <title></title>
    <desc>Created with Sketch.</desc>
    <defs></defs>
    <g id="Design" stroke="none" stroke-width="1" fill="none" fill-rule="evenodd" opacity="0.400000006">
        <g id="Desktop-HD" transform="translate(-326.000000, -4068.000000)" fill="#FFFFFF">
            <path d="M349.859375,4071.98438 C349.953125,4073.67188 350,4075.34374 350,4077 C350,4078.65626 349.953125,4080.32812 349.859375,4082.01562 C349.859375,4083.07813 349.523441,4083.97656 348.851562,4084.71094 C348.179684,4085.44532 347.35938,4085.8125 346.390625,4085.8125 C343.984363,4085.9375 341.187516,4086 338,4086 C334.812484,4086 332.015637,4085.9375 329.609375,4085.8125 C328.64062,4085.8125 327.820316,4085.44532 327.148438,4084.71094 C326.476559,4083.97656 326.140625,4083.07813 326.140625,4082.01562 C326.046875,4080.32812 326,4078.65626 326,4077 C326,4075.90624 326.062499,4074.23439 326.1875,4071.98438 C326.1875,4070.92187 326.515622,4070.02344 327.171875,4069.28906 C327.828128,4068.55468 328.64062,4068.1875 329.609375,4068.1875 C331.890636,4068.0625 334.54686,4068 337.578125,4068 L338.421875,4068 C341.45314,4068 344.109364,4068.0625 346.390625,4068.1875 C347.35938,4068.1875 348.179684,4068.55468 348.851562,4069.28906 C349.523441,4070.02344 349.859375,4070.92187 349.859375,4071.98438 Z M335.703125,4081.59375 L342.5,4077 L335.703125,4072.35938 L335.703125,4081.59375 Z" id=""></path>
        </g>
    </g>
</svg>